<svg xmlns="http://www.w3.org/2000/svg" version="1.1" xmlns:xlink="http://www.w3.org/1999/xlink" xmlns:svgjs="http://svgjs.dev/svgjs" width="1500" height="1500" viewBox="0 0 1500 1500"><rect width="1500" height="1500" fill="#f1ede1"></rect><g transform="matrix(0.6666666666666666,0,0,0.6666666666666666,250.00003351562492,187.66666666666674)"><svg viewBox="0 0 320 360" data-background-color="#f1ede1" preserveAspectRatio="xMidYMid meet" height="1687" width="1500" xmlns="http://www.w3.org/2000/svg" xmlns:xlink="http://www.w3.org/1999/xlink"><g id="tight-bounds" transform="matrix(1,0,0,1,0.00001072500003829191,0)"><svg viewBox="0 0 320 360" height="360" width="320"><g><svg></svg></g><g><svg viewBox="0 0 320 360" height="360" width="320"><g><path transform="translate(-21.67367,-1.67367) scale(3.63347,3.63347)" d="M87.84 28.16c-3.42-5.92-31.01-21.84-37.84-21.84-6.83 0-34.41 15.92-37.84 21.84-3.19 5.51-3.19 38.18 0 43.69 3.43 5.91 31.01 21.83 37.84 21.83 6.83 0 34.42-15.92 37.84-21.84 3.19-5.51 3.19-38.17 0-43.68zM91.14 26.25c-3.98-6.88-32.88-23.75-41.14-23.75-8.26 0-37.16 16.87-41.14 23.75-3.86 6.66-3.86 40.84 0 47.5 3.98 6.88 32.88 23.75 41.14 23.75 8.26 0 37.16-16.87 41.14-23.74 3.86-6.67 3.86-40.85 0-47.51zM88.78 72.39c-3.51 6.07-31.78 22.38-38.78 22.38-7 0-35.27-16.32-38.78-22.39-3.27-5.65-3.27-39.13 0-44.78 3.51-6.06 31.78-22.37 38.78-22.37 7 0 35.27 16.32 38.78 22.38 3.27 5.65 3.27 39.13 0 44.78z" fill="#1c2221" fill-rule="nonzero" stroke="none" stroke-width="1" stroke-linecap="butt" stroke-linejoin="miter" stroke-miterlimit="10" stroke-dasharray="" stroke-dashoffset="0" font-family="none" font-weight="none" font-size="none" text-anchor="none" style="mix-blend-mode: normal" data-fill-palette-color="tertiary"></path></g><g transform="matrix(1,0,0,1,62.913396419750924,90)"><svg viewBox="0 0 194.17320716049815 180" height="180" width="194.17320716049815"><g><svg viewBox="0 0 224 207.6496576928485" height="180" width="194.17320716049815"><g transform="matrix(1,0,0,1,0,134.86791693135666)"><svg viewBox="0 0 224 72.78174076149186" height="72.78174076149186" width="224"><g id="textblocktransform"><svg viewBox="0 0 224 72.78174076149186" height="72.78174076149186" width="224" id="textblock"><g><svg viewBox="0 0 224 47.226939970717424" height="47.226939970717424" width="224"><g transform="matrix(1,0,0,1,0,0)"><svg width="224" viewBox="3 -35.25 170.74 36" height="47.226939970717424" data-palette-color="#f1ede1"><path d="M3-34.55L20.15-34.55 19.5-29.8 9.35-29.8 9.35-19.9 18.2-19.9 18.2-15.2 9.35-15.2 9.35-4.8 20.15-4.8 20.15 0 3 0 3-34.55ZM36.15-35.25Q38.8-35.25 40.82-34.38 42.85-33.5 44.75-31.7L44.75-31.7 41.7-28.05Q40.4-29.25 39.17-29.83 37.95-30.4 36.5-30.4L36.5-30.4Q33.5-30.4 31.8-27.4 30.1-24.4 30.1-17.35L30.1-17.35Q30.1-10.4 31.8-7.38 33.5-4.35 36.6-4.35L36.6-4.35Q38.15-4.35 39.3-4.98 40.45-5.6 42-6.9L42-6.9 45.05-3.4Q43.45-1.6 41.2-0.43 38.95 0.75 36.15 0.75L36.15 0.75Q30.3 0.75 26.85-3.8 23.4-8.35 23.4-17.35L23.4-17.35Q23.4-23.3 25.05-27.3 26.7-31.3 29.57-33.27 32.45-35.25 36.15-35.25L36.15-35.25ZM59.9-35.25Q66-35.25 69.3-30.8 72.6-26.35 72.6-17.3L72.6-17.3Q72.6-8.35 69.3-3.8 66 0.75 59.9 0.75L59.9 0.75Q53.85 0.75 50.52-3.75 47.2-8.25 47.2-17.25L47.2-17.25Q47.2-26.15 50.52-30.7 53.85-35.25 59.9-35.25L59.9-35.25ZM59.9-30.45Q56.85-30.45 55.37-27.4 53.9-24.35 53.9-17.25L53.9-17.25Q53.9-10.1 55.4-7.13 56.9-4.15 59.9-4.15L59.9-4.15Q63-4.15 64.47-7.1 65.95-10.05 65.95-17.3L65.95-17.3Q65.95-24.4 64.45-27.43 62.95-30.45 59.9-30.45L59.9-30.45ZM103.39-34.55L105.59 0 99.54 0 98.94-14.6Q98.64-22.6 98.64-26L98.64-26 98.69-28.6 93.94-3.8 87.94-3.8 82.99-28.65Q83.04-27.15 83.04-24.05L83.04-24.05Q83.04-18.8 82.84-14.4L82.84-14.4 82.29 0 76.34 0 78.54-34.55 86.54-34.55 91.04-10.2 95.24-34.55 103.39-34.55ZM132.49 0L126.04 0 124.34-8.1 115.44-8.1 113.79 0 107.44 0 116.14-34.55 123.84-34.55 132.49 0ZM119.89-29.7L116.44-12.9 123.39-12.9 119.89-29.7ZM135.39-34.55L141.74-34.55 141.74-5.25 152.89-5.25 152.19 0 135.39 0 135.39-34.55ZM156.24-34.55L162.59-34.55 162.59-5.25 173.74-5.25 173.04 0 156.24 0 156.24-34.55Z" opacity="1" transform="matrix(1,0,0,1,0,0)" fill="#f1ede1" class="wordmark-text-0" data-fill-palette-color="quaternary" id="text-0"></path></svg></g></svg></g><g transform="matrix(1,0,0,1,17.919999999999987,58.37608705124451)"><svg viewBox="0 0 188.16000000000003 14.40565371024735" height="14.40565371024735" width="188.16000000000003"><g transform="matrix(1,0,0,1,0,0)"><svg width="188.16000000000003" viewBox="-0.25 -37.8 636.67 48.75" height="14.40565371024735" data-palette-color="#f1ede1"><path d="M25.3 0L18.15 0 16.6-7.9 8.3-7.9 6.75 0-0.25 0 8.3-34.6 16.8-34.6 25.3 0ZM12.45-29.35L9.3-13.05 15.6-13.05 12.45-29.35ZM49.2-35.4Q51.9-35.4 54.02-34.48 56.15-33.55 58.1-31.7L58.1-31.7 54.75-27.75Q53.5-28.9 52.27-29.48 51.05-30.05 49.65-30.05L49.65-30.05Q46.8-30.05 45.2-27.13 43.6-24.2 43.6-17.35L43.6-17.35Q43.6-10.65 45.2-7.7 46.8-4.75 49.7-4.75L49.7-4.75Q51.25-4.75 52.42-5.38 53.59-6 55.1-7.3L55.1-7.3 58.4-3.45Q54.45 0.8 49.2 0.8L49.2 0.8Q43.25 0.8 39.75-3.78 36.25-8.35 36.25-17.35L36.25-17.35Q36.25-23.3 37.9-27.35 39.55-31.4 42.47-33.4 45.4-35.4 49.2-35.4L49.2-35.4ZM70.94-27.3Q76.04-27.3 78.89-23.75 81.74-20.2 81.74-13.25L81.74-13.25Q81.74-6.6 78.87-2.9 75.99 0.8 70.94 0.8L70.94 0.8Q65.89 0.8 63.02-2.8 60.14-6.4 60.14-13.25L60.14-13.25Q60.14-20.05 62.99-23.68 65.84-27.3 70.94-27.3L70.94-27.3ZM70.94-22.15Q68.99-22.15 68.09-20.13 67.19-18.1 67.19-13.25L67.19-13.25Q67.19-8.35 68.09-6.33 68.99-4.3 70.94-4.3L70.94-4.3Q72.89-4.3 73.79-6.35 74.69-8.4 74.69-13.25L74.69-13.25Q74.69-18.15 73.79-20.15 72.89-22.15 70.94-22.15L70.94-22.15ZM109.99-27.3Q112.59-27.3 114.19-25.23 115.79-23.15 115.79-19.75L115.79-19.75 115.79 0 109.14 0 109.14-19.05Q109.14-20.7 108.72-21.4 108.29-22.1 107.49-22.1L107.49-22.1Q105.74-22.1 104.14-18.8L104.14-18.8 104.14 0 97.54 0 97.54-19.05Q97.54-22.1 95.84-22.1L95.84-22.1Q94.04-22.1 92.44-18.8L92.44-18.8 92.44 0 85.79 0 85.79-26.5 91.74-26.5 92.14-23.15Q93.39-25.15 94.92-26.23 96.44-27.3 98.39-27.3L98.39-27.3Q100.24-27.3 101.57-26.18 102.89-25.05 103.59-22.95L103.59-22.95Q106.24-27.3 109.99-27.3L109.99-27.3ZM133.49-27.3Q137.39-27.3 139.44-23.7 141.49-20.1 141.49-13.3L141.49-13.3Q141.49-9 140.44-5.83 139.39-2.65 137.44-0.93 135.49 0.8 132.84 0.8L132.84 0.8Q129.64 0.8 127.54-2L127.54-2 127.54 10.2 120.74 10.95 120.74-26.5 126.79-26.5 127.09-23.5Q128.34-25.45 129.91-26.38 131.49-27.3 133.49-27.3L133.49-27.3ZM130.89-4.3Q134.49-4.3 134.49-13.25L134.49-13.25Q134.49-18.3 133.69-20.25 132.89-22.2 131.29-22.2L131.29-22.2Q129.24-22.2 127.54-19.1L127.54-19.1 127.54-6.65Q128.99-4.3 130.89-4.3L130.89-4.3ZM151.54 0.8Q148.64 0.8 146.96-0.95 145.29-2.7 145.29-5.7L145.29-5.7 145.29-37.05 152.09-37.8 152.09-6Q152.09-4.65 153.24-4.65L153.24-4.65Q153.74-4.65 154.24-4.85L154.24-4.85 155.54-0.15Q153.74 0.8 151.54 0.8L151.54 0.8ZM177.63-13.85Q177.63-13.3 177.48-11.2L177.48-11.2 163.93-11.2Q164.13-7.3 165.31-5.8 166.48-4.3 168.58-4.3L168.58-4.3Q170.03-4.3 171.28-4.83 172.53-5.35 173.98-6.45L173.98-6.45 176.78-2.7Q173.18 0.8 168.13 0.8L168.13 0.8Q162.78 0.8 159.93-2.85 157.08-6.5 157.08-13.05L157.08-13.05Q157.08-19.6 159.78-23.45 162.48-27.3 167.53-27.3L167.53-27.3Q172.28-27.3 174.96-23.88 177.63-20.45 177.63-13.85L177.63-13.85ZM171.03-15.4L171.03-15.8Q171.03-19.4 170.23-21.03 169.43-22.65 167.58-22.65L167.58-22.65Q165.88-22.65 165.01-21.05 164.13-19.45 163.93-15.4L163.93-15.4 171.03-15.4ZM193.03-5.4L195.33-1.2Q194.08-0.2 192.51 0.3 190.93 0.8 189.33 0.8L189.33 0.8Q185.68 0.8 183.83-1.28 181.98-3.35 181.98-6.9L181.98-6.9 181.98-21.65 179.03-21.65 179.03-26.5 181.98-26.5 181.98-32.3 188.78-33.15 188.78-26.5 193.73-26.5 193.08-21.65 188.78-21.65 188.78-6.95Q188.78-4.65 190.68-4.65L190.68-4.65Q191.33-4.65 191.83-4.83 192.33-5 193.03-5.4L193.03-5.4ZM216.98-13.85Q216.98-13.3 216.83-11.2L216.83-11.2 203.28-11.2Q203.48-7.3 204.65-5.8 205.83-4.3 207.93-4.3L207.93-4.3Q209.38-4.3 210.63-4.83 211.88-5.35 213.33-6.45L213.33-6.45 216.13-2.7Q212.53 0.8 207.48 0.8L207.48 0.8Q202.13 0.8 199.28-2.85 196.43-6.5 196.43-13.05L196.43-13.05Q196.43-19.6 199.13-23.45 201.83-27.3 206.88-27.3L206.88-27.3Q211.63-27.3 214.3-23.88 216.98-20.45 216.98-13.85L216.98-13.85ZM210.38-15.4L210.38-15.8Q210.38-19.4 209.58-21.03 208.78-22.65 206.93-22.65L206.93-22.65Q205.23-22.65 204.35-21.05 203.48-19.45 203.28-15.4L203.28-15.4 210.38-15.4ZM257.27-34.6L259.42 0 252.72 0 252.27-14.2 252.17-17.25Q252.12-18.8 252.07-20.85 252.02-22.9 252.02-25.35L252.02-25.35 252.07-28.2 247.77-3.75 241.12-3.75 236.57-28.2Q236.72-24.9 236.72-21.65L236.72-21.65Q236.72-17.95 236.57-14.05L236.57-14.05 236.12 0 229.52 0 231.67-34.6 240.42-34.6 244.57-10.55 248.37-34.6 257.27-34.6ZM281.22-6.7Q281.22-5.4 281.55-4.8 281.87-4.2 282.67-3.8L282.67-3.8 281.27 0.7Q279.17 0.45 277.87-0.38 276.57-1.2 275.92-2.95L275.92-2.95Q273.62 0.8 269.42 0.8L269.42 0.8Q266.12 0.8 264.17-1.45 262.22-3.7 262.22-7.4L262.22-7.4Q262.22-11.75 264.9-14.03 267.57-16.3 272.72-16.3L272.72-16.3 274.57-16.3 274.57-17.9Q274.57-20.35 273.77-21.33 272.97-22.3 271.02-22.3L271.02-22.3Q268.77-22.3 265.27-21L265.27-21 263.72-25.35Q265.77-26.3 268.02-26.8 270.27-27.3 272.27-27.3L272.27-27.3Q281.22-27.3 281.22-18.25L281.22-18.25 281.22-6.7ZM271.37-4.1Q273.47-4.1 274.57-7L274.57-7 274.57-12.35 273.37-12.35Q271.07-12.35 270-11.28 268.92-10.2 268.92-7.95L268.92-7.95Q268.92-6.05 269.57-5.08 270.22-4.1 271.37-4.1L271.37-4.1ZM298.67-27.2Q299.82-27.2 300.72-26.85L300.72-26.85 299.62-20.3Q298.72-20.6 297.77-20.6L297.77-20.6Q295.87-20.6 294.82-19.03 293.77-17.45 293.22-14.35L293.22-14.35 293.22 0 286.42 0 286.42-26.5 292.37-26.5 292.87-22Q294.72-27.2 298.67-27.2L298.67-27.2ZM303.12-37.05L309.92-37.8 309.92 0 303.12 0 303.12-37.05ZM316.97-26.5L323.52-26.5 316.82-14.8 324.02 0 316.82 0 310.12-14.5 316.97-26.5ZM345.76-13.85Q345.76-13.3 345.61-11.2L345.61-11.2 332.06-11.2Q332.26-7.3 333.44-5.8 334.61-4.3 336.71-4.3L336.71-4.3Q338.16-4.3 339.41-4.83 340.66-5.35 342.11-6.45L342.11-6.45 344.91-2.7Q341.31 0.8 336.26 0.8L336.26 0.8Q330.91 0.8 328.06-2.85 325.21-6.5 325.21-13.05L325.21-13.05Q325.21-19.6 327.91-23.45 330.61-27.3 335.66-27.3L335.66-27.3Q340.41-27.3 343.09-23.88 345.76-20.45 345.76-13.85L345.76-13.85ZM339.16-15.4L339.16-15.8Q339.16-19.4 338.36-21.03 337.56-22.65 335.71-22.65L335.71-22.65Q334.01-22.65 333.14-21.05 332.26-19.45 332.06-15.4L332.06-15.4 339.16-15.4ZM361.16-5.4L363.46-1.2Q362.21-0.2 360.64 0.3 359.06 0.8 357.46 0.8L357.46 0.8Q353.81 0.8 351.96-1.28 350.11-3.35 350.11-6.9L350.11-6.9 350.11-21.65 347.16-21.65 347.16-26.5 350.11-26.5 350.11-32.3 356.91-33.15 356.91-26.5 361.86-26.5 361.21-21.65 356.91-21.65 356.91-6.95Q356.91-4.65 358.81-4.65L358.81-4.65Q359.46-4.65 359.96-4.83 360.46-5 361.16-5.4L361.16-5.4ZM375.31-34.6L382.41-34.6 382.41 0 375.31 0 375.31-34.6ZM400.55-27.3Q403.4-27.3 405.05-25.25 406.7-23.2 406.7-19.75L406.7-19.75 406.7 0 399.9 0 399.9-19Q399.9-20.65 399.45-21.35 399-22.05 398.1-22.05L398.1-22.05Q396.3-22.05 394.4-18.45L394.4-18.45 394.4 0 387.6 0 387.6-26.5 393.55-26.5 394.05-23.15Q395.35-25.2 396.9-26.25 398.45-27.3 400.55-27.3L400.55-27.3ZM436.45-34.6L443.6-34.6 434.5-13.1 434.5 0 427.45 0 427.45-13.05 418.35-34.6 425.75-34.6 431.1-18.7 436.45-34.6ZM455.55-27.3Q460.65-27.3 463.5-23.75 466.35-20.2 466.35-13.25L466.35-13.25Q466.35-6.6 463.47-2.9 460.6 0.8 455.55 0.8L455.55 0.8Q450.5 0.8 447.62-2.8 444.75-6.4 444.75-13.25L444.75-13.25Q444.75-20.05 447.6-23.68 450.45-27.3 455.55-27.3L455.55-27.3ZM455.55-22.15Q453.6-22.15 452.7-20.13 451.8-18.1 451.8-13.25L451.8-13.25Q451.8-8.35 452.7-6.33 453.6-4.3 455.55-4.3L455.55-4.3Q457.5-4.3 458.4-6.35 459.3-8.4 459.3-13.25L459.3-13.25Q459.3-18.15 458.4-20.15 457.5-22.15 455.55-22.15L455.55-22.15ZM489.09-26.5L489.09 0 483.14 0 482.84-3.2Q480.39 0.8 476.49 0.8L476.49 0.8Q473.59 0.8 471.92-1.28 470.24-3.35 470.24-6.7L470.24-6.7 470.24-26.5 477.04-26.5 477.04-7.05Q477.04-4.3 478.89-4.3L478.89-4.3Q480.79-4.3 482.29-7.5L482.29-7.5 482.29-26.5 489.09-26.5ZM506.49-27.2Q507.64-27.2 508.54-26.85L508.54-26.85 507.44-20.3Q506.54-20.6 505.59-20.6L505.59-20.6Q503.69-20.6 502.64-19.03 501.59-17.45 501.04-14.35L501.04-14.35 501.04 0 494.24 0 494.24-26.5 500.19-26.5 500.69-22Q502.54-27.2 506.49-27.2L506.49-27.2ZM542.94 0L535.84 0 535.84-15.25 527.74-15.25 527.74 0 520.64 0 520.64-34.6 527.74-34.6 527.74-20.8 535.84-20.8 535.84-34.6 542.94-34.6 542.94 0ZM565.68-6.7Q565.68-5.4 566.01-4.8 566.33-4.2 567.13-3.8L567.13-3.8 565.73 0.7Q563.63 0.45 562.33-0.38 561.03-1.2 560.38-2.95L560.38-2.95Q558.08 0.8 553.88 0.8L553.88 0.8Q550.58 0.8 548.63-1.45 546.68-3.7 546.68-7.4L546.68-7.4Q546.68-11.75 549.36-14.03 552.03-16.3 557.18-16.3L557.18-16.3 559.03-16.3 559.03-17.9Q559.03-20.35 558.23-21.33 557.43-22.3 555.48-22.3L555.48-22.3Q553.23-22.3 549.73-21L549.73-21 548.18-25.35Q550.23-26.3 552.48-26.8 554.73-27.3 556.73-27.3L556.73-27.3Q565.68-27.3 565.68-18.25L565.68-18.25 565.68-6.7ZM555.83-4.1Q557.93-4.1 559.03-7L559.03-7 559.03-12.35 557.83-12.35Q555.53-12.35 554.46-11.28 553.38-10.2 553.38-7.95L553.38-7.95Q553.38-6.05 554.03-5.08 554.68-4.1 555.83-4.1L555.83-4.1ZM583.83-27.3Q586.68-27.3 588.33-25.25 589.98-23.2 589.98-19.75L589.98-19.75 589.98 0 583.18 0 583.18-19Q583.18-20.65 582.73-21.35 582.28-22.05 581.38-22.05L581.38-22.05Q579.58-22.05 577.68-18.45L577.68-18.45 577.68 0 570.88 0 570.88-26.5 576.83-26.5 577.33-23.15Q578.63-25.2 580.18-26.25 581.73-27.3 583.83-27.3L583.83-27.3ZM607.93-37.8L614.73-37.05 614.73 0 608.68 0 608.38-2.95Q606.03 0.8 602.33 0.8L602.33 0.8Q598.23 0.8 596.05-2.88 593.88-6.55 593.88-13.25L593.88-13.25Q593.88-17.5 595-20.68 596.13-23.85 598.18-25.58 600.23-27.3 602.83-27.3L602.83-27.3Q605.93-27.3 607.93-24.7L607.93-24.7 607.93-37.8ZM604.38-4.25Q606.33-4.25 607.93-7.15L607.93-7.15 607.93-19.8Q607.18-21 606.38-21.6 605.58-22.2 604.63-22.2L604.63-22.2Q600.93-22.2 600.93-13.25L600.93-13.25Q600.93-8.3 601.83-6.28 602.73-4.25 604.38-4.25L604.38-4.25ZM627.52-27.3Q629.97-27.3 632.05-26.48 634.12-25.65 635.67-24.1L635.67-24.1 633.12-20.4Q630.42-22.35 628.07-22.35L628.07-22.35Q626.72-22.35 625.97-21.68 625.22-21 625.22-19.75L625.22-19.75Q625.22-18.9 625.6-18.32 625.97-17.75 626.92-17.18 627.87-16.6 629.82-15.8L629.82-15.8Q633.22-14.45 634.82-12.63 636.42-10.8 636.42-7.7L636.42-7.7Q636.42-3.75 633.67-1.48 630.92 0.8 626.62 0.8L626.62 0.8Q623.87 0.8 621.52-0.2 619.17-1.2 617.47-3L617.47-3 620.67-6.55Q623.67-4.1 626.32-4.1L626.32-4.1Q627.82-4.1 628.67-4.9 629.52-5.7 629.52-7.1L629.52-7.1Q629.52-8.65 628.62-9.53 627.72-10.4 624.92-11.5L624.92-11.5Q621.47-12.9 620-14.7 618.52-16.5 618.52-19.3L618.52-19.3Q618.52-21.55 619.6-23.38 620.67-25.2 622.72-26.25 624.77-27.3 627.52-27.3L627.52-27.3Z" opacity="1" transform="matrix(1,0,0,1,0,0)" fill="#f1ede1" class="slogan-text-1" data-fill-palette-color="quaternary" id="text-1"></path></svg></g></svg></g></svg></g></svg></g><g transform="matrix(1,0,0,1,41.690750638897114,0)"><svg viewBox="0 0 140.61849872220577 123.71876985082956" height="123.71876985082956" width="140.61849872220577"><g><svg xmlns="http://www.w3.org/2000/svg" xmlns:xlink="http://www.w3.org/1999/xlink" version="1.1" x="0" y="0" viewBox="35.5 62 441 388" style="enable-background:new 0 0 512 512;" xml:space="preserve" height="123.71876985082956" width="140.61849872220577" class="icon-icon-0" data-fill-palette-color="quaternary" id="icon-0"><g fill="#f1ede1" data-fill-palette-color="quaternary"><g fill="#f1ede1" data-fill-palette-color="quaternary"><g fill="#f1ede1" data-fill-palette-color="quaternary"><path d="M35.5 420c0 16.5 13.5 30 30 30h381c16.5 0 30-13.5 30-30V178.6h-441V420zM273 255h89c5.5 0 10 4.5 10 10s-4.5 10-10 10h-89c-5.5 0-10-4.5-10-10S267.5 255 273 255zM273 305h159c5.5 0 10 4.5 10 10s-4.5 10-10 10H273c-5.5 0-10-4.5-10-10S267.5 305 273 305zM273 355h159c5.5 0 10 4.5 10 10s-4.5 10-10 10H273c-5.5 0-10-4.5-10-10S267.5 355 273 355zM60.4 377.1l10.9-124.8c0.4-5.2 4.8-9.1 10-9.1h25.6v-6.1c0-22.7 18.4-41.1 41.1-41.1s41.1 18.4 41.1 41.1v6.1h25.6c5.2 0 9.5 4 10 9.1l10.9 124.8c0.6 7.4-1.9 14.8-6.9 20.3s-12.2 8.6-19.6 8.6H86.9c-7.4 0-14.6-3.1-19.6-8.6C62.3 391.9 59.8 384.5 60.4 377.1z" fill="#f1ede1" data-fill-palette-color="quaternary"></path></g></g><g fill="#f1ede1" data-fill-palette-color="quaternary"><g fill="#f1ede1" data-fill-palette-color="quaternary"><path d="M86.9 386h122.2c2.5 0 4.1-1.3 4.9-2.1s1.9-2.5 1.7-5l-10.1-115.7h-16.5v16.3c5.9 3.5 9.9 9.9 9.9 17.2 0 11-8.9 19.9-19.9 19.9s-19.9-8.9-19.9-19.9c0-7.4 4-13.8 9.9-17.2v-16.3h-42.2v16.3c5.9 3.5 9.9 9.9 9.9 17.2 0 11-8.9 19.9-19.9 19.9S97 307.7 97 296.7c0-7.4 4-13.8 9.9-17.2v-16.3H90.4l-10 115.6c-0.2 2.5 1 4.2 1.7 5S84.4 386 86.9 386z" fill="#f1ede1" data-fill-palette-color="quaternary"></path></g></g><g fill="#f1ede1" data-fill-palette-color="quaternary"><g fill="#f1ede1" data-fill-palette-color="quaternary"><path d="M79 104c-3.5 0-6.3 2.8-6.3 6.3s2.8 6.3 6.3 6.3 6.3-2.8 6.3-6.3S82.4 104 79 104z" fill="#f1ede1" data-fill-palette-color="quaternary"></path></g></g><g fill="#f1ede1" data-fill-palette-color="quaternary"><g fill="#f1ede1" data-fill-palette-color="quaternary"><path d="M135 104c-3.5 0-6.3 2.8-6.3 6.3s2.8 6.3 6.3 6.3 6.3-2.8 6.3-6.3S138.4 104 135 104z" fill="#f1ede1" data-fill-palette-color="quaternary"></path></g></g><g fill="#f1ede1" data-fill-palette-color="quaternary"><g fill="#f1ede1" data-fill-palette-color="quaternary"><path d="M446.5 62h-381c-16.5 0-30 13.5-30 30v66.6h441V92C476.5 75.5 463 62 446.5 62zM79 136.6c-14.5 0-26.3-11.8-26.3-26.3S64.5 84 79 84s26.3 11.8 26.3 26.3S93.5 136.6 79 136.6zM135 136.6c-14.5 0-26.3-11.8-26.3-26.3S120.5 84 135 84s26.3 11.8 26.3 26.3S149.5 136.6 135 136.6zM192 136.6c-14.5 0-26.3-11.8-26.3-26.3S177.5 84 192 84s26.3 11.8 26.3 26.3S206.5 136.6 192 136.6z" fill="#f1ede1" data-fill-palette-color="quaternary"></path></g></g><g fill="#f1ede1" data-fill-palette-color="quaternary"><g fill="#f1ede1" data-fill-palette-color="quaternary"><path d="M192 104c-3.5 0-6.3 2.8-6.3 6.3s2.8 6.3 6.3 6.3 6.3-2.8 6.3-6.3S195.4 104 192 104z" fill="#f1ede1" data-fill-palette-color="quaternary"></path></g></g><g fill="#f1ede1" data-fill-palette-color="quaternary"><g fill="#f1ede1" data-fill-palette-color="quaternary"><path d="M169.1 237.1c0-11.6-9.5-21.1-21.1-21.1s-21.1 9.5-21.1 21.1v6.1h42.2V237.1z" fill="#f1ede1" data-fill-palette-color="quaternary"></path></g></g></g></svg></g></svg></g><g></g></svg></g></svg></g></svg></g><defs></defs></svg><rect width="320" height="360" fill="none" stroke="none" visibility="hidden"></rect></g></svg></g></svg>